<svg width="220" height="180" viewBox="0 0 220 180" fill="none" xmlns="http://www.w3.org/2000/svg">
<rect width="220" height="180" rx="20" fill="#3D2521"/>
<path d="M30.16 132V131.54C30.5467 131.513 30.8267 131.413 31 131.24C31.1733 131.067 31.26 130.653 31.26 130V120.7C31.26 120.047 31.16 119.633 30.96 119.46C30.7733 119.273 30.4067 119.173 29.86 119.16V118.7H39.68V121.5H39.22C39.1933 120.927 38.9933 120.46 38.62 120.1C38.26 119.74 37.7 119.56 36.94 119.56H35.34C35.06 119.56 34.84 119.633 34.68 119.78C34.5333 119.927 34.46 120.233 34.46 120.7V124.64C34.5667 124.56 34.6933 124.507 34.84 124.48C35 124.453 35.1867 124.44 35.4 124.44H37.34C37.74 124.44 38.0733 124.327 38.34 124.1C38.6067 123.873 38.7467 123.56 38.76 123.16H39.22V126.56H38.76C38.7467 126.067 38.6067 125.733 38.34 125.56C38.0733 125.387 37.74 125.3 37.34 125.3H35.44C35.08 125.3 34.8267 125.36 34.68 125.48C34.5333 125.6 34.46 125.833 34.46 126.18V130C34.46 130.467 34.56 130.773 34.76 130.92C34.9733 131.067 35.38 131.14 35.98 131.14H37.88C38.68 131.14 39.3133 130.9 39.78 130.42C40.2467 129.94 40.5067 129.367 40.56 128.7H41.02L40.86 132H30.16ZM47.087 132.2C46.9937 131.853 46.8937 131.553 46.787 131.3C46.6804 131.033 46.547 130.74 46.387 130.42L43.627 124.8C43.4137 124.36 43.2404 124.033 43.107 123.82C42.9737 123.607 42.8537 123.467 42.747 123.4C42.6537 123.32 42.5337 123.273 42.387 123.26V122.8H47.407V123.26C47.0737 123.273 46.8537 123.36 46.747 123.52C46.6404 123.68 46.607 123.873 46.647 124.1C46.687 124.327 46.7604 124.56 46.867 124.8L48.547 128.3H48.587L50.047 124.8C50.1937 124.453 50.2004 124.12 50.067 123.8C49.947 123.467 49.667 123.287 49.227 123.26V122.8H52.407V123.26C52.1004 123.287 51.8404 123.467 51.627 123.8C51.4137 124.12 51.2337 124.453 51.087 124.8L48.707 130.42C48.5604 130.78 48.4537 131.08 48.387 131.32C48.3204 131.56 48.247 131.853 48.167 132.2H47.087ZM59.1941 132.3C58.2874 132.3 57.4607 132.107 56.7141 131.72C55.9807 131.333 55.3941 130.78 54.9541 130.06C54.5274 129.34 54.3141 128.487 54.3141 127.5C54.3141 126.433 54.5541 125.527 55.0341 124.78C55.5141 124.033 56.1474 123.467 56.9341 123.08C57.7341 122.693 58.5874 122.5 59.4941 122.5C60.7207 122.5 61.6474 122.833 62.2741 123.5C62.9141 124.153 63.2341 125.013 63.2341 126.08L57.3341 126.82C57.4141 127.953 57.7474 128.767 58.3341 129.26C58.9207 129.753 59.6007 130 60.3741 130C60.7607 130 61.2007 129.933 61.6941 129.8C62.1874 129.653 62.6341 129.393 63.0341 129.02L63.3541 129.34C62.9807 130.233 62.4674 130.953 61.8141 131.5C61.1741 132.033 60.3007 132.3 59.1941 132.3ZM58.8941 123.36C58.4407 123.36 58.0741 123.6 57.7941 124.08C57.5141 124.547 57.3541 125.193 57.3141 126.02L60.2141 125.66C60.1874 125.033 60.0741 124.493 59.8741 124.04C59.6874 123.587 59.3607 123.36 58.8941 123.36ZM75.8522 129.8C75.8522 130.293 75.8855 130.667 75.9522 130.92C76.0189 131.16 76.1389 131.32 76.3122 131.4C76.4855 131.48 76.7322 131.527 77.0522 131.54V132H71.9522V131.54C72.1789 131.527 72.3589 131.48 72.4922 131.4C72.6255 131.32 72.7189 131.16 72.7722 130.92C72.8255 130.667 72.8522 130.293 72.8522 129.8V125.82C72.8522 125.433 72.7922 125.12 72.6722 124.88C72.5522 124.627 72.2589 124.5 71.7922 124.5C71.5389 124.5 71.2522 124.54 70.9322 124.62C70.6255 124.7 70.2655 124.873 69.8522 125.14V129.8C69.8522 130.293 69.8855 130.667 69.9522 130.92C70.0189 131.16 70.1389 131.32 70.3122 131.4C70.4855 131.48 70.7322 131.527 71.0522 131.54V132H65.9522V131.54C66.1789 131.527 66.3589 131.48 66.4922 131.4C66.6255 131.32 66.7189 131.16 66.7722 130.92C66.8255 130.667 66.8522 130.293 66.8522 129.8V125.2C66.8522 125 66.8122 124.867 66.7322 124.8C66.6655 124.733 66.5589 124.7 66.4122 124.7C66.2522 124.7 66.0655 124.727 65.8522 124.78L65.6522 124.32L69.8122 122.38L69.9322 122.5C69.9055 122.62 69.8722 122.873 69.8322 123.26C69.8055 123.647 69.7922 124.04 69.7922 124.44H69.8522C70.1189 124.133 70.4322 123.833 70.7922 123.54C71.1522 123.247 71.5522 123 71.9922 122.8C72.4455 122.6 72.9322 122.5 73.4522 122.5C74.2789 122.5 74.8855 122.7 75.2722 123.1C75.6589 123.487 75.8522 124.113 75.8522 124.98V129.8ZM86.1573 129.96L86.4773 130.28C86.3307 130.613 86.1307 130.933 85.8773 131.24C85.624 131.547 85.2973 131.8 84.8973 132C84.5107 132.2 84.0307 132.3 83.4573 132.3C82.5107 132.3 81.7907 132.02 81.2973 131.46C80.804 130.9 80.5573 130.18 80.5573 129.3V123.86H79.3573V122.8H80.5573V120.1L83.6573 119.8C83.6173 120.307 83.5907 120.807 83.5773 121.3C83.564 121.793 83.5573 122.293 83.5573 122.8H86.1573V123.86H84.3573C83.824 123.86 83.5573 124.127 83.5573 124.66V128.9C83.5573 129.967 83.9907 130.5 84.8573 130.5C85.364 130.5 85.7973 130.32 86.1573 129.96ZM91.9931 132.3C90.9798 132.3 90.1598 132.12 89.5331 131.76C88.9198 131.4 88.6131 130.893 88.6131 130.24C88.6131 129.987 88.6665 129.72 88.7731 129.44C88.8798 129.147 89.0731 128.867 89.3531 128.6H89.8131C89.8798 129.12 89.9865 129.6 90.1331 130.04C90.2931 130.467 90.5265 130.807 90.8331 131.06C91.1531 131.313 91.5798 131.44 92.1131 131.44C92.5398 131.44 92.8931 131.347 93.1731 131.16C93.4665 130.96 93.6131 130.667 93.6131 130.28C93.6131 129.92 93.4931 129.62 93.2531 129.38C93.0265 129.14 92.7331 128.927 92.3731 128.74C92.0131 128.54 91.6265 128.347 91.2131 128.16C90.7998 127.973 90.4131 127.76 90.0531 127.52C89.6931 127.267 89.3931 126.967 89.1531 126.62C88.9265 126.273 88.8131 125.84 88.8131 125.32C88.8131 124.453 89.1598 123.767 89.8531 123.26C90.5598 122.753 91.5131 122.5 92.7131 122.5C93.1665 122.5 93.6598 122.54 94.1931 122.62C94.7398 122.7 95.1798 122.84 95.5131 123.04V125.7H95.0731C94.9798 125.02 94.7265 124.46 94.3131 124.02C93.8998 123.58 93.3665 123.36 92.7131 123.36C92.2731 123.36 91.9465 123.46 91.7331 123.66C91.5198 123.847 91.4131 124.067 91.4131 124.32C91.4131 124.613 91.5265 124.867 91.7531 125.08C91.9931 125.28 92.2931 125.473 92.6531 125.66C93.0131 125.833 93.3931 126.02 93.7931 126.22C94.2065 126.42 94.5931 126.653 94.9531 126.92C95.3131 127.187 95.6065 127.513 95.8331 127.9C96.0731 128.273 96.1931 128.733 96.1931 129.28C96.1931 129.933 96.0131 130.487 95.6531 130.94C95.2931 131.38 94.7931 131.72 94.1531 131.96C93.5265 132.187 92.8065 132.3 91.9931 132.3ZM110.952 136.02V136.48H105.652V136.02C105.879 136.007 106.059 135.96 106.192 135.88C106.326 135.8 106.419 135.633 106.472 135.38C106.526 135.14 106.552 134.773 106.552 134.28V125.2C106.552 125 106.512 124.867 106.432 124.8C106.366 124.733 106.259 124.7 106.112 124.7C105.952 124.7 105.766 124.727 105.552 124.78L105.352 124.32L109.512 122.38L109.632 122.5C109.606 122.62 109.572 122.873 109.532 123.26C109.506 123.647 109.492 124.04 109.492 124.44H109.532C109.786 123.893 110.186 123.433 110.732 123.06C111.292 122.687 111.959 122.5 112.732 122.5C113.372 122.5 113.966 122.687 114.512 123.06C115.072 123.42 115.519 123.94 115.852 124.62C116.186 125.3 116.352 126.12 116.352 127.08C116.352 128.04 116.186 128.853 115.852 129.52C115.519 130.173 115.079 130.707 114.532 131.12C113.999 131.533 113.412 131.833 112.772 132.02C112.132 132.207 111.506 132.3 110.892 132.3C110.626 132.3 110.379 132.293 110.152 132.28C109.939 132.267 109.739 132.247 109.552 132.22V134.28C109.552 134.773 109.586 135.14 109.652 135.38C109.719 135.633 109.852 135.8 110.052 135.88C110.266 135.96 110.566 136.007 110.952 136.02ZM111.072 131.34C111.659 131.34 112.152 131.033 112.552 130.42C112.952 129.793 113.152 128.967 113.152 127.94C113.152 126.78 112.952 125.92 112.552 125.36C112.152 124.787 111.659 124.5 111.072 124.5C110.819 124.5 110.559 124.553 110.292 124.66C110.026 124.753 109.779 124.913 109.552 125.14V130.46C109.926 131.047 110.432 131.34 111.072 131.34ZM123.825 132.3C122.918 132.3 122.091 132.107 121.345 131.72C120.611 131.333 120.025 130.78 119.585 130.06C119.158 129.34 118.945 128.487 118.945 127.5C118.945 126.433 119.185 125.527 119.665 124.78C120.145 124.033 120.778 123.467 121.565 123.08C122.365 122.693 123.218 122.5 124.125 122.5C125.351 122.5 126.278 122.833 126.905 123.5C127.545 124.153 127.865 125.013 127.865 126.08L121.965 126.82C122.045 127.953 122.378 128.767 122.965 129.26C123.551 129.753 124.231 130 125.005 130C125.391 130 125.831 129.933 126.325 129.8C126.818 129.653 127.265 129.393 127.665 129.02L127.985 129.34C127.611 130.233 127.098 130.953 126.445 131.5C125.805 132.033 124.931 132.3 123.825 132.3ZM123.525 123.36C123.071 123.36 122.705 123.6 122.425 124.08C122.145 124.547 121.985 125.193 121.945 126.02L124.845 125.66C124.818 125.033 124.705 124.493 124.505 124.04C124.318 123.587 123.991 123.36 123.525 123.36ZM130.583 132V131.54C130.809 131.527 130.989 131.48 131.123 131.4C131.256 131.32 131.349 131.16 131.403 130.92C131.456 130.667 131.483 130.293 131.483 129.8V125.2C131.483 125 131.443 124.867 131.363 124.8C131.296 124.733 131.189 124.7 131.043 124.7C130.883 124.7 130.696 124.727 130.483 124.78L130.283 124.32L134.443 122.38L134.563 122.5C134.536 122.62 134.503 122.88 134.463 123.28C134.436 123.68 134.423 124.133 134.423 124.64H134.463C134.956 123.893 135.509 123.353 136.123 123.02C136.749 122.687 137.423 122.547 138.143 122.6C138.249 123.76 138.249 124.927 138.143 126.1H137.683C137.589 125.5 137.409 125.12 137.143 124.96C136.876 124.8 136.596 124.72 136.303 124.72C135.969 124.72 135.656 124.767 135.363 124.86C135.069 124.94 134.776 125.1 134.483 125.34V129.8C134.483 130.293 134.516 130.667 134.583 130.92C134.649 131.16 134.783 131.32 134.983 131.4C135.196 131.48 135.496 131.527 135.883 131.54V132H130.583ZM148.189 136.7C147.589 136.7 147.169 136.52 146.929 136.16C146.689 135.8 146.569 135.387 146.569 134.92C146.569 134.693 146.596 134.427 146.649 134.12C146.703 133.813 146.783 133.507 146.889 133.2H147.349C147.443 133.693 147.569 134.06 147.729 134.3C147.889 134.553 148.143 134.68 148.489 134.68C148.956 134.68 149.396 134.42 149.809 133.9C150.223 133.393 150.603 132.693 150.949 131.8L147.609 124.8C147.409 124.36 147.243 124.04 147.109 123.84C146.976 123.627 146.856 123.48 146.749 123.4C146.643 123.32 146.516 123.273 146.369 123.26V122.8H151.429V123.26C151.096 123.273 150.876 123.36 150.769 123.52C150.663 123.68 150.629 123.873 150.669 124.1C150.709 124.327 150.783 124.56 150.889 124.8L152.489 128.3H152.529L154.069 124.8C154.216 124.453 154.223 124.12 154.089 123.8C153.969 123.467 153.689 123.287 153.249 123.26V122.8H156.469V123.26C156.163 123.287 155.903 123.467 155.689 123.8C155.476 124.12 155.296 124.453 155.149 124.8L152.669 130.42C152.029 131.873 151.469 133.06 150.989 133.98C150.523 134.913 150.069 135.6 149.629 136.04C149.203 136.48 148.723 136.7 148.189 136.7ZM163.253 132.3C162.346 132.3 161.519 132.107 160.773 131.72C160.039 131.333 159.453 130.78 159.013 130.06C158.586 129.34 158.373 128.487 158.373 127.5C158.373 126.433 158.613 125.527 159.093 124.78C159.573 124.033 160.206 123.467 160.993 123.08C161.793 122.693 162.646 122.5 163.553 122.5C164.779 122.5 165.706 122.833 166.333 123.5C166.973 124.153 167.293 125.013 167.293 126.08L161.393 126.82C161.473 127.953 161.806 128.767 162.393 129.26C162.979 129.753 163.659 130 164.433 130C164.819 130 165.259 129.933 165.753 129.8C166.246 129.653 166.693 129.393 167.093 129.02L167.413 129.34C167.039 130.233 166.526 130.953 165.873 131.5C165.233 132.033 164.359 132.3 163.253 132.3ZM162.953 123.36C162.499 123.36 162.133 123.6 161.853 124.08C161.573 124.547 161.413 125.193 161.373 126.02L164.273 125.66C164.246 125.033 164.133 124.493 163.933 124.04C163.746 123.587 163.419 123.36 162.953 123.36ZM172.171 132.3C171.437 132.3 170.891 132.08 170.531 131.64C170.184 131.2 170.011 130.693 170.011 130.12C170.011 129.24 170.411 128.527 171.211 127.98C172.024 127.433 173.277 126.933 174.971 126.48V125.42C174.971 124.793 174.837 124.347 174.571 124.08C174.317 123.8 173.957 123.66 173.491 123.66C172.851 123.66 172.317 123.9 171.891 124.38C171.477 124.86 171.191 125.507 171.031 126.32H170.571V123.44C171.024 123.213 171.611 123 172.331 122.8C173.064 122.6 173.857 122.5 174.711 122.5C177.017 122.5 178.171 123.393 178.171 125.18V129.54C178.171 129.847 178.211 130.087 178.291 130.26C178.371 130.42 178.531 130.5 178.771 130.5C178.904 130.5 179.051 130.473 179.211 130.42C179.384 130.353 179.564 130.233 179.751 130.06L180.071 130.38C179.777 130.993 179.391 131.453 178.911 131.76C178.431 132.053 177.884 132.2 177.271 132.2C176.617 132.2 176.111 132.073 175.751 131.82C175.404 131.553 175.157 131.173 175.011 130.68H174.971C174.664 131.213 174.257 131.62 173.751 131.9C173.244 132.167 172.717 132.3 172.171 132.3ZM173.731 130.5C173.997 130.5 174.231 130.44 174.431 130.32C174.644 130.187 174.824 130.04 174.971 129.88V127.28C174.357 127.453 173.891 127.68 173.571 127.96C173.264 128.24 173.057 128.52 172.951 128.8C172.857 129.08 172.811 129.313 172.811 129.5C172.811 129.78 172.891 130.02 173.051 130.22C173.211 130.407 173.437 130.5 173.731 130.5ZM182.094 132V131.54C182.321 131.527 182.501 131.48 182.634 131.4C182.768 131.32 182.861 131.16 182.914 130.92C182.968 130.667 182.994 130.293 182.994 129.8V125.2C182.994 125 182.954 124.867 182.874 124.8C182.808 124.733 182.701 124.7 182.554 124.7C182.394 124.7 182.208 124.727 181.994 124.78L181.794 124.32L185.954 122.38L186.074 122.5C186.048 122.62 186.014 122.88 185.974 123.28C185.948 123.68 185.934 124.133 185.934 124.64H185.974C186.468 123.893 187.021 123.353 187.634 123.02C188.261 122.687 188.934 122.547 189.654 122.6C189.761 123.76 189.761 124.927 189.654 126.1H189.194C189.101 125.5 188.921 125.12 188.654 124.96C188.388 124.8 188.108 124.72 187.814 124.72C187.481 124.72 187.168 124.767 186.874 124.86C186.581 124.94 186.288 125.1 185.994 125.34V129.8C185.994 130.293 186.028 130.667 186.094 130.92C186.161 131.16 186.294 131.32 186.494 131.4C186.708 131.48 187.008 131.527 187.394 131.54V132H182.094Z" fill="#FFBB70"/>
<path d="M89.35 51V52.15C88.7167 53.3833 87.9833 55 87.15 57C86.3167 58.9667 85.45 61.1667 84.55 63.6C83.65 66 82.8 68.4833 82 71.05C81.2 73.6167 80.5 76.1167 79.9 78.55C79.3 81.0167 78.8833 83.25 78.65 85.25H69.65C71.35 81.9167 73.1 78.7167 74.9 75.65C76.7333 72.6167 78.4667 69.6167 80.1 66.65C81.7333 63.65 83.1167 60.6 84.25 57.5H72.1C70.5 57.5 69.4167 57.8333 68.85 58.5C68.3167 59.1333 67.9833 60.1333 67.85 61.5H66.7V51H89.35ZM107.388 50.25C109.355 50.25 111.205 50.75 112.938 51.75C114.672 52.7167 116.072 54.1 117.138 55.9C118.238 57.7 118.788 59.85 118.788 62.35C118.788 64.85 118.238 67.0333 117.138 68.9C116.072 70.7333 114.655 72.1667 112.888 73.2C111.122 74.2333 109.222 74.75 107.188 74.75C105.222 74.75 103.372 74.2667 101.638 73.3C99.9049 72.3 98.4883 70.9 97.3883 69.1C96.3216 67.2667 95.7883 65.1 95.7883 62.6C95.7883 60.1 96.3216 57.9333 97.3883 56.1C98.4883 54.2333 99.9216 52.8 101.688 51.8C103.455 50.7667 105.355 50.25 107.388 50.25ZM107.438 67.5C110.438 67.5 112.655 66.9667 114.088 65.9C115.555 64.8333 116.288 63.6833 116.288 62.45C116.288 61.1167 115.505 59.9667 113.938 59C112.405 58 110.138 57.5 107.138 57.5C104.172 57.5 101.955 58 100.488 59C99.0216 59.9667 98.2883 61.0833 98.2883 62.35C98.2883 63.6833 99.0716 64.8833 100.638 65.95C102.205 66.9833 104.472 67.5 107.438 67.5ZM137.85 72.75V63.75H128.85V61.25H137.85V52.25H140.35V61.25H149.35V63.75H140.35V72.75H137.85Z" fill="#FFBB70"/>
</svg>
