<svg width="220" height="180" viewBox="0 0 220 180" fill="none" xmlns="http://www.w3.org/2000/svg">
<rect width="220" height="180" rx="20" fill="#3D2521"/>
<path d="M41.94 130C42.1267 130.453 42.28 130.787 42.4 131C42.5333 131.213 42.6733 131.353 42.82 131.42C42.9667 131.473 43.1467 131.513 43.36 131.54V132H37.78V131.54C38.3133 131.513 38.6067 131.353 38.66 131.06C38.7267 130.767 38.68 130.413 38.52 130L37.52 127.4C37.44 127.467 37.3333 127.513 37.2 127.54C37.08 127.553 36.9467 127.56 36.8 127.56H34.54C34.26 127.56 34.0467 127.593 33.9 127.66C33.7533 127.727 33.6267 127.893 33.52 128.16L32.8 130C32.6267 130.44 32.64 130.8 32.84 131.08C33.04 131.36 33.4333 131.513 34.02 131.54V132H30.38V131.54C30.6733 131.513 30.92 131.367 31.12 131.1C31.3333 130.82 31.5267 130.453 31.7 130L35.54 120.28C35.6867 119.933 35.8133 119.593 35.92 119.26C36.04 118.927 36.1467 118.587 36.24 118.24H37.4C37.4933 118.587 37.6 118.927 37.72 119.26C37.84 119.593 37.9667 119.933 38.1 120.28L41.94 130ZM36.7 126.7C36.8867 126.7 37.0067 126.673 37.06 126.62C37.1267 126.553 37.12 126.42 37.04 126.22L35.66 122.8H35.62L34.06 126.78C34.1267 126.74 34.2067 126.72 34.3 126.72C34.3933 126.707 34.5 126.7 34.62 126.7H36.7ZM55.7123 129.8C55.7123 130.293 55.7457 130.667 55.8123 130.92C55.879 131.16 55.999 131.32 56.1723 131.4C56.3457 131.48 56.5923 131.527 56.9123 131.54V132H51.8123V131.54C52.039 131.527 52.219 131.48 52.3523 131.4C52.4857 131.32 52.579 131.16 52.6323 130.92C52.6857 130.667 52.7123 130.293 52.7123 129.8V125.82C52.7123 125.433 52.6523 125.12 52.5323 124.88C52.4123 124.627 52.119 124.5 51.6523 124.5C51.399 124.5 51.1123 124.54 50.7923 124.62C50.4857 124.7 50.1257 124.873 49.7123 125.14V129.8C49.7123 130.293 49.7457 130.667 49.8123 130.92C49.879 131.16 49.999 131.32 50.1723 131.4C50.3457 131.48 50.5923 131.527 50.9123 131.54V132H45.8123V131.54C46.039 131.527 46.219 131.48 46.3523 131.4C46.4857 131.32 46.579 131.16 46.6323 130.92C46.6857 130.667 46.7123 130.293 46.7123 129.8V125.2C46.7123 125 46.6723 124.867 46.5923 124.8C46.5257 124.733 46.419 124.7 46.2723 124.7C46.1123 124.7 45.9257 124.727 45.7123 124.78L45.5123 124.32L49.6723 122.38L49.7923 122.5C49.7657 122.62 49.7323 122.873 49.6923 123.26C49.6657 123.647 49.6523 124.04 49.6523 124.44H49.7123C49.979 124.133 50.2923 123.833 50.6523 123.54C51.0123 123.247 51.4123 123 51.8523 122.8C52.3057 122.6 52.7923 122.5 53.3123 122.5C54.139 122.5 54.7457 122.7 55.1323 123.1C55.519 123.487 55.7123 124.113 55.7123 124.98V129.8ZM69.3975 129.8C69.3975 130.293 69.4308 130.667 69.4975 130.92C69.5642 131.16 69.6842 131.32 69.8575 131.4C70.0308 131.48 70.2775 131.527 70.5975 131.54V132H65.4975V131.54C65.7242 131.527 65.9042 131.48 66.0375 131.4C66.1708 131.32 66.2642 131.16 66.3175 130.92C66.3708 130.667 66.3975 130.293 66.3975 129.8V125.82C66.3975 125.433 66.3375 125.12 66.2175 124.88C66.0975 124.627 65.8042 124.5 65.3375 124.5C65.0842 124.5 64.7975 124.54 64.4775 124.62C64.1708 124.7 63.8108 124.873 63.3975 125.14V129.8C63.3975 130.293 63.4308 130.667 63.4975 130.92C63.5642 131.16 63.6842 131.32 63.8575 131.4C64.0308 131.48 64.2775 131.527 64.5975 131.54V132H59.4975V131.54C59.7242 131.527 59.9042 131.48 60.0375 131.4C60.1708 131.32 60.2642 131.16 60.3175 130.92C60.3708 130.667 60.3975 130.293 60.3975 129.8V125.2C60.3975 125 60.3575 124.867 60.2775 124.8C60.2108 124.733 60.1042 124.7 59.9575 124.7C59.7975 124.7 59.6108 124.727 59.3975 124.78L59.1975 124.32L63.3575 122.38L63.4775 122.5C63.4508 122.62 63.4175 122.873 63.3775 123.26C63.3508 123.647 63.3375 124.04 63.3375 124.44H63.3975C63.6642 124.133 63.9775 123.833 64.3375 123.54C64.6975 123.247 65.0975 123 65.5375 122.8C65.9908 122.6 66.4775 122.5 66.9975 122.5C67.8242 122.5 68.4308 122.7 68.8175 123.1C69.2042 123.487 69.3975 124.113 69.3975 124.98V129.8ZM83.8827 130.02L84.0827 130.48L79.9227 132.42L79.8027 132.3C79.8293 132.18 79.856 131.927 79.8827 131.54C79.9227 131.153 79.9427 130.76 79.9427 130.36H79.8827C79.616 130.653 79.3093 130.953 78.9627 131.26C78.616 131.553 78.2293 131.8 77.8027 132C77.376 132.2 76.9027 132.3 76.3827 132.3C75.5693 132.3 74.9627 132.1 74.5627 131.7C74.176 131.3 73.9827 130.673 73.9827 129.82V125.2C73.9827 125 73.9427 124.867 73.8627 124.8C73.796 124.733 73.6893 124.7 73.5427 124.7C73.3827 124.7 73.196 124.727 72.9827 124.78L72.7827 124.32L76.9427 122.38L77.0627 122.5C77.0493 122.7 77.0293 123.013 77.0027 123.44C76.9893 123.853 76.9827 124.38 76.9827 125.02V128.98C76.9827 129.353 77.036 129.667 77.1427 129.92C77.2627 130.173 77.5293 130.3 77.9427 130.3C78.2093 130.3 78.496 130.26 78.8027 130.18C79.1093 130.1 79.4693 129.933 79.8827 129.68V125.2C79.8827 125 79.8427 124.867 79.7627 124.8C79.696 124.733 79.5893 124.7 79.4427 124.7C79.2827 124.7 79.096 124.727 78.8827 124.78L78.6827 124.32L82.8427 122.38L82.9627 122.5C82.9493 122.7 82.9293 123.013 82.9027 123.44C82.8893 123.853 82.8827 124.38 82.8827 125.02V129.6C82.8827 129.8 82.9227 129.933 83.0027 130C83.0827 130.067 83.1893 130.1 83.3227 130.1C83.4827 130.1 83.6693 130.073 83.8827 130.02ZM88.8911 132.3C88.1578 132.3 87.6111 132.08 87.2511 131.64C86.9044 131.2 86.7311 130.693 86.7311 130.12C86.7311 129.24 87.1311 128.527 87.9311 127.98C88.7444 127.433 89.9978 126.933 91.6911 126.48V125.42C91.6911 124.793 91.5578 124.347 91.2911 124.08C91.0378 123.8 90.6778 123.66 90.2111 123.66C89.5711 123.66 89.0378 123.9 88.6111 124.38C88.1978 124.86 87.9111 125.507 87.7511 126.32H87.2911V123.44C87.7444 123.213 88.3311 123 89.0511 122.8C89.7844 122.6 90.5778 122.5 91.4311 122.5C93.7378 122.5 94.8911 123.393 94.8911 125.18V129.54C94.8911 129.847 94.9311 130.087 95.0111 130.26C95.0911 130.42 95.2511 130.5 95.4911 130.5C95.6244 130.5 95.7711 130.473 95.9311 130.42C96.1044 130.353 96.2844 130.233 96.4711 130.06L96.7911 130.38C96.4978 130.993 96.1111 131.453 95.6311 131.76C95.1511 132.053 94.6044 132.2 93.9911 132.2C93.3378 132.2 92.8311 132.073 92.4711 131.82C92.1244 131.553 91.8778 131.173 91.7311 130.68H91.6911C91.3844 131.213 90.9778 131.62 90.4711 131.9C89.9644 132.167 89.4378 132.3 88.8911 132.3ZM90.4511 130.5C90.7178 130.5 90.9511 130.44 91.1511 130.32C91.3644 130.187 91.5444 130.04 91.6911 129.88V127.28C91.0778 127.453 90.6111 127.68 90.2911 127.96C89.9844 128.24 89.7778 128.52 89.6711 128.8C89.5778 129.08 89.5311 129.313 89.5311 129.5C89.5311 129.78 89.6111 130.02 89.7711 130.22C89.9311 130.407 90.1578 130.5 90.4511 130.5ZM102.695 129.8C102.695 130.293 102.728 130.667 102.795 130.92C102.861 131.16 102.981 131.32 103.155 131.4C103.328 131.48 103.575 131.527 103.895 131.54V132H98.7947V131.54C99.0214 131.527 99.2014 131.48 99.3347 131.4C99.468 131.32 99.5614 131.16 99.6147 130.92C99.668 130.667 99.6947 130.293 99.6947 129.8V119.02C99.6947 118.82 99.6547 118.687 99.5747 118.62C99.508 118.553 99.4014 118.52 99.2547 118.52C99.148 118.52 99.028 118.533 98.8947 118.56C98.7747 118.587 98.6414 118.627 98.4947 118.68L98.2947 118.22L102.655 116.2L102.775 116.32C102.761 116.52 102.741 116.833 102.715 117.26C102.701 117.673 102.695 118.2 102.695 118.84V129.8ZM117.034 132.2C116.941 131.853 116.841 131.553 116.734 131.3C116.627 131.033 116.494 130.74 116.334 130.42L113.574 124.8C113.361 124.36 113.187 124.033 113.054 123.82C112.921 123.607 112.801 123.467 112.694 123.4C112.601 123.32 112.481 123.273 112.334 123.26V122.8H117.354V123.26C117.021 123.273 116.801 123.36 116.694 123.52C116.587 123.68 116.554 123.873 116.594 124.1C116.634 124.327 116.707 124.56 116.814 124.8L118.494 128.3H118.534L119.994 124.8C120.141 124.453 120.147 124.12 120.014 123.8C119.894 123.467 119.614 123.287 119.174 123.26V122.8H122.354V123.26C122.047 123.287 121.787 123.467 121.574 123.8C121.361 124.12 121.181 124.453 121.034 124.8L118.654 130.42C118.507 130.78 118.401 131.08 118.334 131.32C118.267 131.56 118.194 131.853 118.114 132.2H117.034ZM128.321 129.8C128.321 130.293 128.354 130.667 128.421 130.92C128.488 131.16 128.608 131.32 128.781 131.4C128.954 131.48 129.201 131.527 129.521 131.54V132H124.421V131.54C124.648 131.527 124.828 131.48 124.961 131.4C125.094 131.32 125.188 131.16 125.241 130.92C125.294 130.667 125.321 130.293 125.321 129.8V125.2C125.321 125 125.281 124.867 125.201 124.8C125.134 124.733 125.028 124.7 124.881 124.7C124.774 124.7 124.654 124.713 124.521 124.74C124.401 124.767 124.268 124.807 124.121 124.86L123.921 124.4L128.281 122.38L128.401 122.5C128.388 122.7 128.368 123.013 128.341 123.44C128.328 123.853 128.321 124.38 128.321 125.02V129.8ZM126.921 121.4C126.428 121.4 126.014 121.233 125.681 120.9C125.348 120.553 125.181 120.147 125.181 119.68C125.181 119.213 125.348 118.807 125.681 118.46C126.014 118.113 126.428 117.94 126.921 117.94C127.401 117.94 127.808 118.113 128.141 118.46C128.474 118.807 128.641 119.213 128.641 119.68C128.641 120.147 128.474 120.553 128.141 120.9C127.808 121.233 127.401 121.4 126.921 121.4ZM135.429 132.3C134.416 132.3 133.596 132.12 132.969 131.76C132.356 131.4 132.049 130.893 132.049 130.24C132.049 129.987 132.102 129.72 132.209 129.44C132.316 129.147 132.509 128.867 132.789 128.6H133.249C133.316 129.12 133.422 129.6 133.569 130.04C133.729 130.467 133.962 130.807 134.269 131.06C134.589 131.313 135.016 131.44 135.549 131.44C135.976 131.44 136.329 131.347 136.609 131.16C136.902 130.96 137.049 130.667 137.049 130.28C137.049 129.92 136.929 129.62 136.689 129.38C136.462 129.14 136.169 128.927 135.809 128.74C135.449 128.54 135.062 128.347 134.649 128.16C134.236 127.973 133.849 127.76 133.489 127.52C133.129 127.267 132.829 126.967 132.589 126.62C132.362 126.273 132.249 125.84 132.249 125.32C132.249 124.453 132.596 123.767 133.289 123.26C133.996 122.753 134.949 122.5 136.149 122.5C136.602 122.5 137.096 122.54 137.629 122.62C138.176 122.7 138.616 122.84 138.949 123.04V125.7H138.509C138.416 125.02 138.162 124.46 137.749 124.02C137.336 123.58 136.802 123.36 136.149 123.36C135.709 123.36 135.382 123.46 135.169 123.66C134.956 123.847 134.849 124.067 134.849 124.32C134.849 124.613 134.962 124.867 135.189 125.08C135.429 125.28 135.729 125.473 136.089 125.66C136.449 125.833 136.829 126.02 137.229 126.22C137.642 126.42 138.029 126.653 138.389 126.92C138.749 127.187 139.042 127.513 139.269 127.9C139.509 128.273 139.629 128.733 139.629 129.28C139.629 129.933 139.449 130.487 139.089 130.94C138.729 131.38 138.229 131.72 137.589 131.96C136.962 132.187 136.242 132.3 135.429 132.3ZM146.258 129.8C146.258 130.293 146.291 130.667 146.358 130.92C146.424 131.16 146.544 131.32 146.718 131.4C146.891 131.48 147.138 131.527 147.458 131.54V132H142.358V131.54C142.584 131.527 142.764 131.48 142.898 131.4C143.031 131.32 143.124 131.16 143.178 130.92C143.231 130.667 143.258 130.293 143.258 129.8V125.2C143.258 125 143.218 124.867 143.138 124.8C143.071 124.733 142.964 124.7 142.818 124.7C142.711 124.7 142.591 124.713 142.458 124.74C142.338 124.767 142.204 124.807 142.058 124.86L141.858 124.4L146.218 122.38L146.338 122.5C146.324 122.7 146.304 123.013 146.278 123.44C146.264 123.853 146.258 124.38 146.258 125.02V129.8ZM144.858 121.4C144.364 121.4 143.951 121.233 143.618 120.9C143.284 120.553 143.118 120.147 143.118 119.68C143.118 119.213 143.284 118.807 143.618 118.46C143.951 118.113 144.364 117.94 144.858 117.94C145.338 117.94 145.744 118.113 146.078 118.46C146.411 118.807 146.578 119.213 146.578 119.68C146.578 120.147 146.411 120.553 146.078 120.9C145.744 121.233 145.338 121.4 144.858 121.4ZM156.606 129.96L156.926 130.28C156.779 130.613 156.579 130.933 156.326 131.24C156.072 131.547 155.746 131.8 155.346 132C154.959 132.2 154.479 132.3 153.906 132.3C152.959 132.3 152.239 132.02 151.746 131.46C151.252 130.9 151.006 130.18 151.006 129.3V123.86H149.806V122.8H151.006V120.1L154.106 119.8C154.066 120.307 154.039 120.807 154.026 121.3C154.012 121.793 154.006 122.293 154.006 122.8H156.606V123.86H154.806C154.272 123.86 154.006 124.127 154.006 124.66V128.9C154.006 129.967 154.439 130.5 155.306 130.5C155.812 130.5 156.246 130.32 156.606 129.96ZM164.242 122.5C165.215 122.5 166.068 122.7 166.802 123.1C167.548 123.487 168.135 124.04 168.562 124.76C168.988 125.48 169.202 126.32 169.202 127.28C169.202 128.333 168.955 129.233 168.462 129.98C167.968 130.727 167.322 131.3 166.522 131.7C165.735 132.1 164.882 132.3 163.962 132.3C163.002 132.3 162.148 132.1 161.402 131.7C160.655 131.3 160.068 130.747 159.642 130.04C159.215 129.32 159.002 128.48 159.002 127.52C159.002 126.467 159.248 125.567 159.742 124.82C160.235 124.073 160.875 123.5 161.662 123.1C162.462 122.7 163.322 122.5 164.242 122.5ZM164.302 131.44C164.795 131.44 165.202 131.16 165.522 130.6C165.842 130.04 166.002 129.173 166.002 128C166.002 127.147 165.915 126.373 165.742 125.68C165.568 124.973 165.322 124.413 165.002 124C164.695 123.573 164.328 123.36 163.902 123.36C163.408 123.36 163.002 123.64 162.682 124.2C162.362 124.76 162.202 125.627 162.202 126.8C162.202 127.653 162.288 128.433 162.462 129.14C162.635 129.833 162.882 130.393 163.202 130.82C163.522 131.233 163.888 131.44 164.302 131.44ZM171.968 132V131.54C172.194 131.527 172.374 131.48 172.508 131.4C172.641 131.32 172.734 131.16 172.788 130.92C172.841 130.667 172.868 130.293 172.868 129.8V125.2C172.868 125 172.828 124.867 172.748 124.8C172.681 124.733 172.574 124.7 172.428 124.7C172.268 124.7 172.081 124.727 171.868 124.78L171.668 124.32L175.828 122.38L175.948 122.5C175.921 122.62 175.888 122.88 175.848 123.28C175.821 123.68 175.808 124.133 175.808 124.64H175.848C176.341 123.893 176.894 123.353 177.508 123.02C178.134 122.687 178.808 122.547 179.528 122.6C179.634 123.76 179.634 124.927 179.528 126.1H179.068C178.974 125.5 178.794 125.12 178.528 124.96C178.261 124.8 177.981 124.72 177.688 124.72C177.354 124.72 177.041 124.767 176.748 124.86C176.454 124.94 176.161 125.1 175.868 125.34V129.8C175.868 130.293 175.901 130.667 175.968 130.92C176.034 131.16 176.168 131.32 176.368 131.4C176.581 131.48 176.881 131.527 177.268 131.54V132H171.968ZM185.144 132.3C184.131 132.3 183.311 132.12 182.684 131.76C182.071 131.4 181.764 130.893 181.764 130.24C181.764 129.987 181.817 129.72 181.924 129.44C182.031 129.147 182.224 128.867 182.504 128.6H182.964C183.031 129.12 183.137 129.6 183.284 130.04C183.444 130.467 183.677 130.807 183.984 131.06C184.304 131.313 184.731 131.44 185.264 131.44C185.691 131.44 186.044 131.347 186.324 131.16C186.617 130.96 186.764 130.667 186.764 130.28C186.764 129.92 186.644 129.62 186.404 129.38C186.177 129.14 185.884 128.927 185.524 128.74C185.164 128.54 184.777 128.347 184.364 128.16C183.951 127.973 183.564 127.76 183.204 127.52C182.844 127.267 182.544 126.967 182.304 126.62C182.077 126.273 181.964 125.84 181.964 125.32C181.964 124.453 182.311 123.767 183.004 123.26C183.711 122.753 184.664 122.5 185.864 122.5C186.317 122.5 186.811 122.54 187.344 122.62C187.891 122.7 188.331 122.84 188.664 123.04V125.7H188.224C188.131 125.02 187.877 124.46 187.464 124.02C187.051 123.58 186.517 123.36 185.864 123.36C185.424 123.36 185.097 123.46 184.884 123.66C184.671 123.847 184.564 124.067 184.564 124.32C184.564 124.613 184.677 124.867 184.904 125.08C185.144 125.28 185.444 125.473 185.804 125.66C186.164 125.833 186.544 126.02 186.944 126.22C187.357 126.42 187.744 126.653 188.104 126.92C188.464 127.187 188.757 127.513 188.984 127.9C189.224 128.273 189.344 128.733 189.344 129.28C189.344 129.933 189.164 130.487 188.804 130.94C188.444 131.38 187.944 131.72 187.304 131.96C186.677 132.187 185.957 132.3 185.144 132.3Z" fill="#FFBB70"/>
<path d="M71.6 65.25H72.75L72.25 74H51.65V72.85C51.95 72.6833 52.3667 72.4333 52.9 72.1C53.4667 71.7333 54.0167 71.3667 54.55 71C56.4167 69.6667 57.8833 68.3833 58.95 67.15C60.05 65.9167 60.8667 64.7667 61.4 63.7C61.9333 62.6 62.2667 61.6333 62.4 60.8C62.5667 59.9333 62.65 59.25 62.65 58.75C62.65 57.7833 62.3667 57 61.8 56.4C61.2667 55.8 60.3667 55.5 59.1 55.5C58 55.5 56.9833 55.7833 56.05 56.35C55.1167 56.8833 54.0833 57.7833 52.95 59.05L52 58.25C53.1333 55.7833 54.65 53.8333 56.55 52.4C58.45 50.9667 60.7667 50.25 63.5 50.25C65.8667 50.25 67.65 50.8 68.85 51.9C70.05 52.9667 70.65 54.4667 70.65 56.4C70.65 58.9 69.8 61.0667 68.1 62.9C66.4 64.7 64.15 66.35 61.35 67.85V68H66.35C68.25 68 69.5667 67.7667 70.3 67.3C71.0333 66.8 71.4667 66.1167 71.6 65.25ZM91.4117 50.25C93.3784 50.25 95.2284 50.75 96.9617 51.75C98.6951 52.7167 100.095 54.1 101.162 55.9C102.262 57.7 102.812 59.85 102.812 62.35C102.812 64.85 102.262 67.0333 101.162 68.9C100.095 70.7333 98.6784 72.1667 96.9117 73.2C95.1451 74.2333 93.2451 74.75 91.2117 74.75C89.2451 74.75 87.3951 74.2667 85.6617 73.3C83.9284 72.3 82.5117 70.9 81.4117 69.1C80.3451 67.2667 79.8117 65.1 79.8117 62.6C79.8117 60.1 80.3451 57.9333 81.4117 56.1C82.5117 54.2333 83.9451 52.8 85.7117 51.8C87.4784 50.7667 89.3784 50.25 91.4117 50.25ZM91.4617 67.5C94.4617 67.5 96.6784 66.9667 98.1117 65.9C99.5784 64.8333 100.312 63.6833 100.312 62.45C100.312 61.1167 99.5284 59.9667 97.9617 59C96.4284 58 94.1617 57.5 91.1617 57.5C88.1951 57.5 85.9784 58 84.5117 59C83.0451 59.9667 82.3117 61.0833 82.3117 62.35C82.3117 63.6833 83.0951 64.8833 84.6617 65.95C86.2284 66.9833 88.4951 67.5 91.4617 67.5ZM119.723 68.5C119.723 69.7333 119.773 70.6667 119.873 71.3C120.006 71.9 120.24 72.3 120.573 72.5C120.906 72.7 121.373 72.8167 121.973 72.85V74H109.973V72.85C110.54 72.8167 110.99 72.7 111.323 72.5C111.656 72.3 111.89 71.9 112.023 71.3C112.156 70.6667 112.223 69.7333 112.223 68.5V41.55C112.223 41.05 112.123 40.7167 111.923 40.55C111.756 40.3833 111.49 40.3 111.123 40.3C110.856 40.3 110.556 40.3333 110.223 40.4C109.923 40.4667 109.59 40.5667 109.223 40.7L108.723 39.55L119.623 34.5L119.923 34.8C119.89 35.3 119.84 36.0833 119.773 37.15C119.74 38.1833 119.723 39.5 119.723 41.1V62.45H119.823L126.123 55.95C126.59 55.4833 126.94 55.1 127.173 54.8C127.406 54.4667 127.523 54.1333 127.523 53.8C127.523 53.5 127.39 53.1667 127.123 52.8C126.89 52.4333 126.273 52.2167 125.273 52.15V51H135.373V52.15C134.373 52.2167 133.456 52.5167 132.623 53.05C131.79 53.5833 131.056 54.1667 130.423 54.8L127.523 57.8L133.173 68.85C133.973 70.4167 134.656 71.4833 135.223 72.05C135.823 72.5833 136.406 72.85 136.973 72.85V74C135.873 74.5 134.556 74.75 133.023 74.75C131.323 74.75 129.856 74.4 128.623 73.7C127.423 73 126.523 72.0667 125.923 70.9L122.073 63.4L119.723 65.8V68.5ZM154.475 72.75V63.75H145.475V61.25H154.475V52.25H156.975V61.25H165.975V63.75H156.975V72.75H154.475Z" fill="#FFBB70"/>
</svg>
