<svg width="45" height="45" viewBox="0 0 45 45" fill="none" xmlns="http://www.w3.org/2000/svg">
<g clip-path="url(#clip0_355_315)">
<path d="M23 15.6665C23.7838 15.6665 24.5877 15.6867 25.3669 15.7197L26.2872 15.7637L27.1681 15.8159L27.9931 15.8718L28.7466 15.9305C29.5643 15.9931 30.3338 16.342 30.9196 16.916C31.5054 17.4899 31.8701 18.252 31.9495 19.0683L31.9861 19.4578L32.0549 20.292C32.119 21.1564 32.1667 22.0988 32.1667 22.9998C32.1667 23.9009 32.119 24.8433 32.0549 25.7077L31.9861 26.5418C31.9742 26.6757 31.9623 26.8049 31.9495 26.9314C31.8701 27.7478 31.5053 28.5101 30.9193 29.084C30.3333 29.6579 29.5636 30.0068 28.7457 30.0692L27.994 30.1269L27.169 30.1838L26.2872 30.236L25.3669 30.28C24.5784 30.3143 23.7893 30.332 23 30.3332C22.2108 30.332 21.4217 30.3143 20.6332 30.28L19.7129 30.236L18.832 30.1838L18.007 30.1269L17.2535 30.0692C16.4357 30.0066 15.6663 29.6576 15.0805 29.0837C14.4947 28.5098 14.13 27.7477 14.0506 26.9314L14.014 26.5418L13.9452 25.7077C13.8751 24.8067 13.8378 23.9035 13.8334 22.9998C13.8334 22.0988 13.881 21.1564 13.9452 20.292L14.014 19.4578C14.0259 19.324 14.0378 19.1948 14.0506 19.0683C14.13 18.2521 14.4945 17.4901 15.0801 16.9162C15.6658 16.3423 16.435 15.9933 17.2525 15.9305L18.0051 15.8718L18.8301 15.8159L19.712 15.7637L20.6323 15.7197C21.4211 15.6854 22.2105 15.6677 23 15.6665ZM23 17.4998C22.2438 17.4998 21.4655 17.52 20.7084 17.5512L19.8119 17.5943L18.9511 17.6447L18.1426 17.6997L17.402 17.7574C17.0127 17.785 16.6457 17.9496 16.3662 18.2219C16.0867 18.4942 15.9126 18.8567 15.8748 19.2452C15.7675 20.3534 15.6667 21.733 15.6667 22.9998C15.6667 24.2667 15.7675 25.6463 15.8748 26.7545C15.9527 27.5538 16.587 28.1753 17.402 28.2423L18.1426 28.2991L18.9511 28.3541L19.8119 28.4054L20.7084 28.4485C21.4655 28.4797 22.2438 28.4998 23 28.4998C23.7563 28.4998 24.5345 28.4797 25.2917 28.4485L26.1882 28.4054L27.049 28.355L27.8575 28.3L28.5981 28.2423C28.9874 28.2146 29.3543 28.0501 29.6339 27.7778C29.9134 27.5054 30.0875 27.1429 30.1253 26.7545C30.2325 25.6463 30.3334 24.2667 30.3334 22.9998C30.3334 21.733 30.2325 20.3534 30.1253 19.2452C30.0875 18.8567 29.9134 18.4942 29.6339 18.2219C29.3543 17.9496 28.9874 17.785 28.5981 17.7574L27.8575 17.7006L27.049 17.6456L26.1882 17.5943L25.2917 17.5512C24.5283 17.5183 23.7642 17.5012 23 17.4998ZM21.1667 20.7769C21.1666 20.6873 21.1885 20.5991 21.2303 20.5198C21.2721 20.4406 21.3327 20.3728 21.4066 20.3223C21.4806 20.2718 21.5659 20.2401 21.6549 20.23C21.7439 20.22 21.834 20.2318 21.9175 20.2645L21.9917 20.3012L25.8417 22.5232C25.9184 22.5674 25.9832 22.6295 26.0308 22.7042C26.0783 22.7788 26.1071 22.8638 26.1148 22.952C26.1224 23.0402 26.1087 23.1289 26.0747 23.2107C26.0407 23.2924 25.9875 23.3647 25.9196 23.4215L25.8417 23.4765L21.9917 25.6994C21.9141 25.7443 21.8267 25.7696 21.7371 25.7731C21.6476 25.7765 21.5585 25.758 21.4777 25.7191C21.3969 25.6802 21.3268 25.6222 21.2736 25.5501C21.2203 25.478 21.1855 25.3939 21.1722 25.3053L21.1667 25.2228V20.7769Z" fill="#FFBB70"/>
</g>
<circle cx="22.5" cy="22.5" r="21.5" stroke="#FFBB70" stroke-width="2"/>
<defs>
<clipPath id="clip0_355_315">
<rect width="22" height="22" fill="white" transform="translate(12 12)"/>
</clipPath>
</defs>
</svg>
