<svg width="107" height="28" viewBox="0 0 107 28" fill="none" xmlns="http://www.w3.org/2000/svg">
<g clip-path="url(#clip0_1902_2060)">
<path d="M105.457 8.49799C103.189 6.93713 99.7082 6.68566 96.8507 6.40818C90.8678 5.84247 84.8002 6.11575 78.9455 7.21462C73.595 8.2332 68.5155 9.9524 63.9319 12.2961C63.7392 12.2267 63.5464 12.1833 63.365 12.114C60.3371 11.0179 57.7373 9.3348 55.8242 7.23196C56.3553 6.15936 56.6911 5.03601 56.822 3.89347C56.9695 2.29792 56.085 0.0433571 53.5676 0H53.4996C53.0284 0.0222144 52.5695 0.12393 52.1558 0.297845C51.7421 0.47176 51.3839 0.71356 51.1069 1.00588C49.4627 2.64478 50.3018 5.14215 51.0275 6.93713C51.0275 7.04119 51.1296 7.14525 51.1863 7.2493C49.9689 8.57903 48.4795 9.7502 46.7752 10.7179C45.6264 11.3436 44.3904 11.87 43.0899 12.2874C39.3537 10.38 35.2842 8.88538 31.0019 7.84763C25.9474 6.62325 20.6657 6.03747 15.3647 6.11335C12.4892 6.16615 9.62502 6.40694 6.80329 6.83308C4.42199 7.17126 1.57576 7.80427 0.441803 9.65128C-0.692152 11.4983 0.623236 13.7095 2.70971 14.8541C4.85848 15.8584 7.25627 16.5109 9.75157 16.7705C10.9682 16.9627 12.1989 17.0988 13.4369 17.1781C13.6724 17.4443 13.9339 17.6965 14.2194 17.9325C13.5015 18.0964 12.8094 18.3204 12.1556 18.6002C11.5933 18.8314 11.1059 19.156 10.7291 19.5502C10.3523 19.9443 10.0958 20.398 9.97835 20.8779C9.86089 21.3578 9.88548 21.8517 10.0503 22.3234C10.2151 22.795 10.516 23.2325 10.9309 23.6036C12.5751 25.2165 15.4667 25.6587 17.9501 26.0576C20.9068 26.4822 23.9294 26.5699 26.9197 26.3177C29.8865 26.0935 32.8276 25.7022 35.7191 25.1471C38.5765 24.6969 41.3796 24.0646 44.0991 23.2567C44.4619 23.1527 44.8248 23.0313 45.233 22.9099C48.2512 24.3536 51.0503 26.0491 53.5789 27.9653C51.3195 25.9708 48.7749 24.1762 45.9928 22.615C48.477 21.5829 50.5557 20.0621 52.0141 18.21C52.5244 18.5828 53.0233 18.9557 53.5222 19.3459C53.046 18.9297 52.5584 18.5395 52.0594 18.1406C52.7542 17.241 53.2485 16.2593 53.5222 15.2357C53.1559 16.207 52.5935 17.1286 51.8553 17.9672C50.6508 16.9968 49.383 16.0735 48.0566 15.201C50.1825 13.9477 52.0251 12.4361 53.5109 10.7265C53.9078 11.1861 54.3273 11.5937 54.7696 12.0619C56.0057 13.2179 57.4137 14.2597 58.9652 15.1663C57.6388 16.0388 56.371 16.9621 55.1665 17.9325C54.44 17.0943 53.8855 16.1761 53.5222 15.2097C53.7871 16.2286 54.2699 17.2071 54.951 18.1059C54.4634 18.5048 53.9872 18.9037 53.5222 19.3199C54.0098 18.9384 54.5201 18.5655 55.0191 18.2013C56.5388 20.0655 58.6848 21.5837 61.2331 22.5977C58.3877 24.1608 55.792 25.974 53.4996 28C56.0579 26.0622 58.8915 24.349 61.9475 22.8925C63.2294 23.3827 64.5651 23.786 65.939 24.0979C72.5727 25.6067 79.7393 26.8814 86.6904 26.3091C89.4021 26.2093 92.0528 25.6589 94.458 24.6962C96.6125 23.673 98.064 21.4704 96.4651 19.7015C95.5392 18.8078 94.2297 18.1935 92.7684 17.9672C93.0784 17.7199 93.3557 17.4497 93.5962 17.1607V17.1607C95.7524 17.01 97.8881 16.7199 99.9804 16.2936C102.14 15.977 104.12 15.1595 105.65 13.9523C106.565 13.2073 107.057 12.2163 107.021 11.1948C106.985 10.1734 106.423 9.20415 105.457 8.49799V8.49799ZM51.0275 4.33571C50.5626 2.74017 50.8915 0.294828 53.5563 0H53.8511C56.6066 0.520285 56.5045 3.11304 55.9149 4.75194C55.7108 5.30691 55.4613 5.84453 55.1891 6.38216C54.4775 5.5014 53.9173 4.5542 53.5222 3.56395C53.8303 4.64135 54.3341 5.68046 55.0191 6.65098C54.6001 7.42924 54.0995 8.18032 53.5222 8.89687C52.9399 8.17971 52.4318 7.42879 52.0027 6.65098C52.7005 5.68311 53.2122 4.64342 53.5222 3.56395C53.1401 4.56999 52.5913 5.53454 51.8893 6.43419C51.5311 5.75291 51.243 5.05129 51.0275 4.33571V4.33571ZM6.54248 14.7414C4.27457 14.1604 1.12218 12.747 2.00666 10.5358C2.92516 8.524 6.6899 8.20316 9.02584 7.93434C15.0924 7.14848 21.2961 7.22196 27.3279 8.15113C32.5827 8.98337 37.6213 10.4748 42.2394 12.5649C39.7837 13.2655 37.2581 13.8136 34.6872 14.2038C27.7474 15.3744 20.3314 16.4063 13.1421 15.8167C12.7801 15.2564 12.5759 14.6443 12.5427 14.02C12.5095 13.3956 12.648 12.7729 12.9493 12.192C12.399 12.9439 12.1579 13.8051 12.2576 14.6634C12.3182 15.0344 12.4245 15.4002 12.5751 15.756C10.5252 15.5718 8.5043 15.232 6.54248 14.7414V14.7414ZM14.4802 17.2474C19.0497 17.3652 23.6206 17.0477 28.0876 16.3023C31.0019 15.8687 33.8821 15.3311 36.7397 14.7327C38.9617 14.3045 41.1288 13.7241 43.2146 12.9985C44.2692 13.5014 45.3124 14.0217 46.3216 14.5853C44.078 15.7316 41.655 16.658 39.1097 17.3428C37.4951 17.7788 35.8479 18.1407 34.177 18.4268C29.805 17.4433 25.2437 17.0443 20.6942 17.2474C18.8269 17.2948 16.9681 17.463 15.1379 17.7504C14.8934 17.5943 14.6624 17.4263 14.4461 17.2474H14.4802ZM31.0132 18.8777C30.7411 18.8777 30.4803 18.9557 30.2081 18.9817C27.2991 19.3613 24.3456 19.5037 21.3973 19.4066C20.1355 19.3528 18.8904 19.16 17.7006 18.8343C20.562 18.4693 23.4679 18.35 26.364 18.4788C27.9113 18.5427 29.4523 18.6759 30.9792 18.8777H31.0132ZM43.4867 22.7191C40.8386 23.3547 38.1375 23.853 35.4016 24.2106C32.5315 24.6499 29.6257 24.9396 26.7042 25.0777C23.7 25.2144 20.6852 25.0541 17.7346 24.6008C15.5574 24.28 12.2463 23.6643 11.7587 21.6785C11.3278 19.9443 14.0266 19.3286 16.079 19.0338C18.6635 20.0703 21.5532 20.581 24.4703 20.5166C28.1109 20.5353 31.743 20.2445 35.2996 19.6494C37.689 20.1624 40.012 20.8416 42.2394 21.6785C42.9198 21.9387 43.5775 22.2162 44.2238 22.5023L43.4867 22.7191ZM51.7873 18.0279C50.1009 19.8614 47.7968 21.3117 45.1196 22.2248C43.7567 21.5014 42.3194 20.8634 40.8219 20.3171C39.688 19.9096 38.554 19.554 37.4201 19.2245C38.9677 18.885 40.4832 18.4649 41.9559 17.9672C43.9957 17.2757 45.9216 16.4025 47.6937 15.3657C49.1225 16.2155 50.4719 17.0914 51.7759 18.0279H51.7873ZM52.3883 10.2236C50.7942 11.824 48.8809 13.2227 46.7185 14.3685C45.8 13.8049 44.8588 13.2586 43.8836 12.747C44.1218 12.6516 44.3712 12.5649 44.6094 12.4608C47.3154 11.2113 49.624 9.51703 51.3677 7.50077C51.7586 8.2806 52.2248 9.03711 52.7625 9.76401C52.6264 9.90276 52.513 10.0502 52.3769 10.1889L52.3883 10.2236ZM54.282 9.81604C54.282 9.74667 54.4067 9.6773 54.4521 9.60793C54.9307 8.95092 55.3512 8.27014 55.7108 7.57014C57.1915 9.29769 59.1215 10.7736 61.3805 11.9059C61.9601 12.207 62.5621 12.4821 63.1835 12.7296C62.2235 13.2384 61.2823 13.776 60.36 14.3425C58.0007 13.1027 55.9405 11.5594 54.2706 9.78136L54.282 9.81604ZM55.2685 18.0626C56.5726 17.126 57.9333 16.2502 59.3281 15.4178C62.2762 17.0666 65.5812 18.3053 69.0914 19.0771L69.5904 19.1812C67.68 19.7403 65.8298 20.4129 64.0567 21.1929C63.3423 21.5138 62.6733 21.8606 61.9929 22.2162C59.2966 21.3078 56.97 19.8611 55.2572 18.0279L55.2685 18.0626ZM95.2518 21.0715C95.8188 23.1874 92.1107 24.0718 90.149 24.4707C87.3048 25.0203 84.3708 25.2482 81.4402 25.1471C78.3725 25.0403 75.3205 24.7503 72.3119 24.28C69.4486 23.9139 66.6192 23.407 63.8412 22.7625C63.4897 22.6757 63.1382 22.5717 62.7866 22.4676C63.3309 22.2335 63.9206 21.9994 64.4422 21.7826C66.7688 20.8769 69.2026 20.1423 71.7109 19.5887C73.7548 19.9412 75.8268 20.1904 77.9136 20.3345C80.8731 20.6064 83.8668 20.5743 86.8151 20.2391C88.3291 20.0342 89.777 19.6072 91.0788 18.9817C92.9839 19.2852 94.9343 19.7968 95.2518 21.0715ZM75.7364 18.9124C77.0178 18.7389 78.3218 18.6089 79.6259 18.5308C82.651 18.3476 85.6933 18.4203 88.6975 18.7476L89.4346 18.817C88.011 19.2073 86.513 19.4154 85.0008 19.4326C81.8974 19.5073 78.7923 19.3329 75.7364 18.9124ZM92.4282 17.3949C92.2581 17.5249 92.0654 17.6463 91.8726 17.7677C90.8747 17.603 89.8655 17.5076 88.9583 17.4209C83.4949 16.8888 77.9466 17.2284 72.6634 18.4181C70.8152 18.0794 68.9971 17.6507 67.2204 17.1347C64.9422 16.4606 62.7733 15.5877 60.7569 14.5333C61.7661 13.9783 62.798 13.4494 63.8526 12.9551C67.7009 14.2495 71.7298 15.2037 75.8611 15.7993C81.1345 16.814 86.5605 17.2892 91.9973 17.2128H92.6777C92.5983 17.2474 92.5189 17.3428 92.4282 17.3949ZM105.14 11.6544C104.505 13.8829 101.205 14.62 98.7217 15.1229C97.3131 15.4051 95.881 15.6137 94.4353 15.7473C94.6978 15.1671 94.8 14.5516 94.7356 13.9396C94.6712 13.3277 94.4415 12.7326 94.0611 12.192C94.0611 12.2874 94.1632 12.3741 94.2085 12.4695C94.4587 13.0116 94.5586 13.5876 94.502 14.1609C94.4454 14.7341 94.2335 15.2921 93.8797 15.7993C89.3005 16.1122 84.6874 15.9635 80.1588 15.3571C77.1765 15.0015 74.2283 14.5333 71.2913 14.0217C69.0688 13.6602 66.8853 13.1703 64.7597 12.5562C67.1773 11.4688 69.7114 10.5405 72.3346 9.78136C81.1383 7.2859 90.6804 6.72715 99.8783 8.16847C102.124 8.50666 105.786 9.34778 105.14 11.6544V11.6544Z" fill="#3D2521"/>
</g>
<defs>
<clipPath id="clip0_1902_2060">
<rect width="107" height="28" fill="white"/>
</clipPath>
</defs>
</svg>
