<svg width="45" height="45" viewBox="0 0 45 45" fill="none" xmlns="http://www.w3.org/2000/svg">
<path d="M23 20.2502C22.2707 20.2502 21.5712 20.5399 21.0555 21.0556C20.5398 21.5713 20.25 22.2708 20.25 23.0002C20.25 23.7295 20.5398 24.429 21.0555 24.9447C21.5712 25.4604 22.2707 25.7502 23 25.7502C23.7294 25.7502 24.4289 25.4604 24.9446 24.9447C25.4603 24.429 25.75 23.7295 25.75 23.0002C25.75 22.2708 25.4603 21.5713 24.9446 21.0556C24.4289 20.5399 23.7294 20.2502 23 20.2502ZM23 18.4168C24.2156 18.4168 25.3814 18.8997 26.2409 19.7593C27.1005 20.6188 27.5834 21.7846 27.5834 23.0002C27.5834 24.2157 27.1005 25.3815 26.2409 26.2411C25.3814 27.1006 24.2156 27.5835 23 27.5835C21.7845 27.5835 20.6187 27.1006 19.7591 26.2411C18.8996 25.3815 18.4167 24.2157 18.4167 23.0002C18.4167 21.7846 18.8996 20.6188 19.7591 19.7593C20.6187 18.8997 21.7845 18.4168 23 18.4168ZM28.9584 18.1877C28.9584 18.4916 28.8377 18.783 28.6228 18.9979C28.4079 19.2128 28.1164 19.3335 27.8125 19.3335C27.5086 19.3335 27.2172 19.2128 27.0023 18.9979C26.7874 18.783 26.6667 18.4916 26.6667 18.1877C26.6667 17.8838 26.7874 17.5923 27.0023 17.3774C27.2172 17.1626 27.5086 17.0418 27.8125 17.0418C28.1164 17.0418 28.4079 17.1626 28.6228 17.3774C28.8377 17.5923 28.9584 17.8838 28.9584 18.1877ZM23 15.6668C20.7322 15.6668 20.3619 15.6732 19.3068 15.72C18.5881 15.7539 18.106 15.8502 17.6586 16.0243C17.2843 16.1618 16.9458 16.3821 16.6686 16.6687C16.3817 16.9459 16.1611 17.2844 16.0233 17.6587C15.8491 18.1079 15.7529 18.5892 15.7199 19.3069C15.6722 20.3189 15.6667 20.6727 15.6667 23.0002C15.6667 25.268 15.6731 25.6383 15.7199 26.6934C15.7538 27.4112 15.85 27.8942 16.0233 28.3407C16.1791 28.7394 16.3625 29.0263 16.6668 29.3307C16.9757 29.6387 17.2626 29.8229 17.6568 29.9751C18.1096 30.1502 18.5918 30.2473 19.3068 30.2803C20.3188 30.328 20.6726 30.3335 23 30.3335C25.2679 30.3335 25.6382 30.3271 26.6933 30.2803C27.4101 30.2464 27.8932 30.1502 28.3405 29.9769C28.7143 29.8388 29.0526 29.6189 29.3305 29.3334C29.6395 29.0245 29.8237 28.7376 29.9759 28.3434C30.15 27.8915 30.2472 27.4084 30.2802 26.6934C30.3279 25.6814 30.3334 25.3276 30.3334 23.0002C30.3334 20.7323 30.327 20.362 30.2802 19.3069C30.2463 18.5901 30.15 18.1061 29.9759 17.6587C29.8377 17.2847 29.6175 16.9465 29.3315 16.6687C29.0544 16.3817 28.7159 16.1611 28.3415 16.0234C27.8923 15.8492 27.4101 15.753 26.6933 15.72C25.6813 15.6723 25.3275 15.6668 23 15.6668ZM23 13.8335C25.4906 13.8335 25.8014 13.8427 26.7785 13.8885C27.7548 13.9343 28.4194 14.0874 29.0042 14.3147C29.6092 14.5476 30.1189 14.8629 30.6285 15.3717C31.0947 15.8299 31.4553 16.3842 31.6855 16.996C31.9119 17.5799 32.0659 18.2454 32.1117 19.2217C32.1548 20.1988 32.1667 20.5096 32.1667 23.0002C32.1667 25.4907 32.1575 25.8015 32.1117 26.7787C32.0659 27.7549 31.9119 28.4195 31.6855 29.0043C31.456 29.6165 31.0952 30.1709 30.6285 30.6287C30.1702 31.0946 29.6159 31.4553 29.0042 31.6856C28.4203 31.912 27.7548 32.066 26.7785 32.1118C25.8014 32.1549 25.4906 32.1668 23 32.1668C20.5095 32.1668 20.1987 32.1577 19.2215 32.1118C18.2453 32.066 17.5807 31.912 16.9959 31.6856C16.3838 31.4559 15.8294 31.0952 15.3715 30.6287C14.9053 30.1705 14.5446 29.6162 14.3146 29.0043C14.0873 28.4204 13.9342 27.7549 13.8884 26.7787C13.8453 25.8015 13.8334 25.4907 13.8334 23.0002C13.8334 20.5096 13.8425 20.1988 13.8884 19.2217C13.9342 18.2445 14.0873 17.5808 14.3146 16.996C14.544 16.3838 14.9048 15.8294 15.3715 15.3717C15.8296 14.9053 16.3839 14.5446 16.9959 14.3147C17.5807 14.0874 18.2444 13.9343 19.2215 13.8885C20.1987 13.8454 20.5095 13.8335 23 13.8335Z" fill="#FFBB70"/>
<circle cx="22.5" cy="22.5" r="21.5" stroke="#FFBB70" stroke-width="2"/>
</svg>
