<svg width="45" height="45" viewBox="0 0 45 45" fill="none" xmlns="http://www.w3.org/2000/svg">
<path d="M23.0007 20.2502C22.2713 20.2502 21.5718 20.5399 21.0561 21.0556C20.5404 21.5713 20.2507 22.2708 20.2507 23.0002C20.2507 23.7295 20.5404 24.429 21.0561 24.9447C21.5718 25.4604 22.2713 25.7502 23.0007 25.7502C23.73 25.7502 24.4295 25.4604 24.9452 24.9447C25.4609 24.429 25.7507 23.7295 25.7507 23.0002C25.7507 22.2708 25.4609 21.5713 24.9452 21.0556C24.4295 20.5399 23.73 20.2502 23.0007 20.2502ZM23.0007 18.4168C24.2162 18.4168 25.382 18.8997 26.2416 19.7593C27.1011 20.6188 27.584 21.7846 27.584 23.0002C27.584 24.2157 27.1011 25.3815 26.2416 26.2411C25.382 27.1006 24.2162 27.5835 23.0007 27.5835C21.7851 27.5835 20.6193 27.1006 19.7597 26.2411C18.9002 25.3815 18.4173 24.2157 18.4173 23.0002C18.4173 21.7846 18.9002 20.6188 19.7597 19.7593C20.6193 18.8997 21.7851 18.4168 23.0007 18.4168ZM28.959 18.1877C28.959 18.4916 28.8383 18.783 28.6234 18.9979C28.4085 19.2128 28.117 19.3335 27.8132 19.3335C27.5093 19.3335 27.2178 19.2128 27.0029 18.9979C26.788 18.783 26.6673 18.4916 26.6673 18.1877C26.6673 17.8838 26.788 17.5923 27.0029 17.3774C27.2178 17.1626 27.5093 17.0418 27.8132 17.0418C28.117 17.0418 28.4085 17.1626 28.6234 17.3774C28.8383 17.5923 28.959 17.8838 28.959 18.1877ZM23.0007 15.6668C20.7328 15.6668 20.3625 15.6732 19.3074 15.72C18.5887 15.7539 18.1066 15.8502 17.6592 16.0243C17.2849 16.1618 16.9464 16.3821 16.6692 16.6687C16.3823 16.9459 16.1617 17.2844 16.0239 17.6587C15.8497 18.1079 15.7535 18.5892 15.7205 19.3069C15.6728 20.3189 15.6673 20.6727 15.6673 23.0002C15.6673 25.268 15.6737 25.6383 15.7205 26.6934C15.7544 27.4112 15.8507 27.8942 16.0239 28.3407C16.1797 28.7394 16.3631 29.0263 16.6674 29.3307C16.9763 29.6387 17.2632 29.8229 17.6574 29.9751C18.1102 30.1502 18.5924 30.2473 19.3074 30.2803C20.3194 30.328 20.6732 30.3335 23.0007 30.3335C25.2685 30.3335 25.6388 30.3271 26.6939 30.2803C27.4107 30.2464 27.8938 30.1502 28.3412 29.9769C28.7149 29.8388 29.0532 29.6189 29.3312 29.3334C29.6401 29.0245 29.8243 28.7376 29.9765 28.3434C30.1507 27.8915 30.2478 27.4084 30.2808 26.6934C30.3285 25.6814 30.334 25.3276 30.334 23.0002C30.334 20.7323 30.3276 20.362 30.2808 19.3069C30.2469 18.5901 30.1507 18.1061 29.9765 17.6587C29.8383 17.2847 29.6181 16.9465 29.3321 16.6687C29.055 16.3817 28.7165 16.1611 28.3421 16.0234C27.8929 15.8492 27.4107 15.753 26.6939 15.72C25.6819 15.6723 25.3281 15.6668 23.0007 15.6668ZM23.0007 13.8335C25.4912 13.8335 25.802 13.8427 26.7792 13.8885C27.7554 13.9343 28.42 14.0874 29.0048 14.3147C29.6098 14.5476 30.1195 14.8629 30.6292 15.3717C31.0953 15.8299 31.4559 16.3842 31.6861 16.996C31.9125 17.5799 32.0665 18.2454 32.1123 19.2217C32.1554 20.1988 32.1673 20.5096 32.1673 23.0002C32.1673 25.4907 32.1582 25.8015 32.1123 26.7787C32.0665 27.7549 31.9125 28.4195 31.6861 29.0043C31.4566 29.6165 31.0958 30.1709 30.6292 30.6287C30.1708 31.0946 29.6165 31.4553 29.0048 31.6856C28.4209 31.912 27.7554 32.066 26.7792 32.1118C25.802 32.1549 25.4912 32.1668 23.0007 32.1668C20.5101 32.1668 20.1993 32.1577 19.2222 32.1118C18.2459 32.066 17.5813 31.912 16.9965 31.6856C16.3844 31.4559 15.8301 31.0952 15.3722 30.6287C14.9059 30.1705 14.5453 29.6162 14.3152 29.0043C14.0879 28.4204 13.9348 27.7549 13.889 26.7787C13.8459 25.8015 13.834 25.4907 13.834 23.0002C13.834 20.5096 13.8432 20.1988 13.889 19.2217C13.9348 18.2445 14.0879 17.5808 14.3152 16.996C14.5446 16.3838 14.9054 15.8294 15.3722 15.3717C15.8302 14.9053 16.3845 14.5446 16.9965 14.3147C17.5813 14.0874 18.245 13.9343 19.2222 13.8885C20.1993 13.8454 20.5101 13.8335 23.0007 13.8335Z" fill="#3D2521"/>
<circle cx="22.5" cy="22.5" r="21.5" stroke="#3D2521" stroke-width="2"/>
</svg>
