<svg width="430" height="430" viewBox="0 0 430 430" fill="none" xmlns="http://www.w3.org/2000/svg">
<mask id="mask0_1906_2087" style="mask-type:alpha" maskUnits="userSpaceOnUse" x="15" y="15" width="400" height="400">
<rect x="15" y="15" width="400" height="400" rx="20" fill="#3D2521"/>
</mask>
<g mask="url(#mask0_1906_2087)">
<g filter="url(#filter0_dd_1906_2087)">
<rect x="15" y="15" width="400" height="400" rx="20" fill="#3D2521"/>
</g>
<path d="M101.04 228.32C100.933 227.627 100.827 227.053 100.72 226.6C100.64 226.12 100.507 225.533 100.32 224.84L95.44 205.4C95.2267 204.467 95 203.8 94.76 203.4C94.5467 202.973 94.2667 202.693 93.92 202.56C93.6 202.427 93.1733 202.347 92.64 202.32V201.4H102L101.96 202.32C100.893 202.347 100.12 202.44 99.64 202.6C99.16 202.733 98.8933 203.013 98.84 203.44C98.7867 203.867 98.8667 204.52 99.08 205.4L103.24 221.88H103.32L110.84 201.08H112.88C113.147 201.827 113.4 202.56 113.64 203.28C113.88 203.973 114.133 204.68 114.4 205.4L120.68 221.88H120.8L125.08 205.4C125.587 203.453 124.547 202.427 121.96 202.32L122 201.4H129.64V202.32C128.413 202.427 127.533 203.453 127 205.4L121.84 224.84C121.653 225.533 121.507 226.12 121.4 226.6C121.32 227.053 121.227 227.627 121.12 228.32H119.04C118.907 227.627 118.76 227.053 118.6 226.6C118.44 226.12 118.227 225.533 117.96 224.84L111.04 206.32H110.96L104.12 224.84C103.853 225.587 103.653 226.187 103.52 226.64C103.413 227.067 103.28 227.627 103.12 228.32H101.04ZM152.003 223.96C152.003 224.893 152.083 225.573 152.243 226C152.43 226.427 152.763 226.707 153.243 226.84C153.75 226.973 154.456 227.053 155.363 227.08V228H146.403V227.08C147.016 227.053 147.496 226.973 147.843 226.84C148.19 226.707 148.43 226.427 148.563 226C148.723 225.573 148.803 224.893 148.803 223.96V215.36C148.803 214.427 148.603 213.693 148.203 213.16C147.803 212.627 147.083 212.36 146.043 212.36C145.19 212.36 144.27 212.547 143.283 212.92C142.323 213.293 141.336 213.88 140.323 214.68V223.96C140.323 224.893 140.416 225.573 140.603 226C140.79 226.427 141.123 226.707 141.603 226.84C142.11 226.973 142.816 227.053 143.723 227.08V228H134.723V227.08C135.336 227.053 135.816 226.973 136.163 226.84C136.51 226.707 136.75 226.427 136.883 226C137.043 225.573 137.123 224.893 137.123 223.96V201.72C137.123 200.973 137.016 200.493 136.803 200.28C136.59 200.067 136.283 199.96 135.883 199.96C135.536 199.96 135.163 200.013 134.763 200.12C134.39 200.227 134.043 200.36 133.723 200.52L133.323 199.6L140.243 196.4L140.483 196.64C140.456 196.853 140.416 197.427 140.363 198.36C140.336 199.293 140.323 200.4 140.323 201.68V213.44C141.363 212.373 142.47 211.507 143.643 210.84C144.816 210.147 146.096 209.8 147.483 209.8C149.136 209.8 150.296 210.227 150.963 211.08C151.656 211.907 152.003 213.013 152.003 214.4V223.96ZM169.732 209.8C171.279 209.8 172.692 210.187 173.972 210.96C175.279 211.707 176.332 212.76 177.132 214.12C177.932 215.48 178.332 217.067 178.332 218.88C178.332 220.48 178.052 221.893 177.492 223.12C176.959 224.32 176.239 225.333 175.332 226.16C174.425 226.96 173.425 227.573 172.332 228C171.265 228.4 170.212 228.6 169.172 228.6C167.652 228.6 166.239 228.227 164.932 227.48C163.625 226.707 162.572 225.64 161.772 224.28C160.999 222.92 160.612 221.333 160.612 219.52C160.612 217.92 160.879 216.52 161.412 215.32C161.972 214.093 162.705 213.08 163.612 212.28C164.519 211.453 165.505 210.84 166.572 210.44C167.639 210.013 168.692 209.8 169.732 209.8ZM169.852 227C171.425 227 172.665 226.44 173.572 225.32C174.479 224.173 174.932 222.413 174.932 220.04C174.932 218.413 174.679 216.947 174.172 215.64C173.692 214.333 173.012 213.307 172.132 212.56C171.252 211.787 170.225 211.4 169.052 211.4C167.505 211.4 166.279 211.973 165.372 213.12C164.465 214.24 164.012 215.987 164.012 218.36C164.012 219.96 164.252 221.413 164.732 222.72C165.239 224.027 165.932 225.067 166.812 225.84C167.692 226.613 168.705 227 169.852 227ZM206.654 228.32C206.547 227.627 206.441 227.053 206.334 226.6C206.254 226.12 206.121 225.533 205.934 224.84L201.054 205.4C200.841 204.467 200.614 203.8 200.374 203.4C200.161 202.973 199.881 202.693 199.534 202.56C199.214 202.427 198.787 202.347 198.254 202.32V201.4H207.614L207.574 202.32C206.507 202.347 205.734 202.44 205.254 202.6C204.774 202.733 204.507 203.013 204.454 203.44C204.401 203.867 204.481 204.52 204.694 205.4L208.854 221.88H208.934L216.454 201.08H218.494C218.761 201.827 219.014 202.56 219.254 203.28C219.494 203.973 219.747 204.68 220.014 205.4L226.294 221.88H226.414L230.694 205.4C231.201 203.453 230.161 202.427 227.574 202.32L227.614 201.4H235.254V202.32C234.027 202.427 233.147 203.453 232.614 205.4L227.454 224.84C227.267 225.533 227.121 226.12 227.014 226.6C226.934 227.053 226.841 227.627 226.734 228.32H224.654C224.521 227.627 224.374 227.053 224.214 226.6C224.054 226.12 223.841 225.533 223.574 224.84L216.654 206.32H216.574L209.734 224.84C209.467 225.587 209.267 226.187 209.134 226.64C209.027 227.067 208.894 227.627 208.734 228.32H206.654ZM246.155 228.6C244.795 228.6 243.489 228.28 242.235 227.64C241.009 227 239.995 226.04 239.195 224.76C238.422 223.453 238.035 221.8 238.035 219.8C238.035 217.773 238.435 216.013 239.235 214.52C240.035 213.027 241.102 211.867 242.435 211.04C243.769 210.213 245.222 209.8 246.795 209.8C247.942 209.8 248.995 210.027 249.955 210.48C250.942 210.933 251.729 211.627 252.315 212.56C252.929 213.493 253.235 214.68 253.235 216.12L241.235 217.68C241.235 217.813 241.235 217.96 241.235 218.12C241.235 220.573 241.795 222.493 242.915 223.88C244.035 225.267 245.529 225.96 247.395 225.96C248.462 225.96 249.449 225.747 250.355 225.32C251.262 224.867 252.075 224.307 252.795 223.64L253.435 224.28C252.689 225.56 251.689 226.6 250.435 227.4C249.209 228.2 247.782 228.6 246.155 228.6ZM245.955 211.28C244.569 211.28 243.502 211.773 242.755 212.76C242.009 213.747 241.542 214.96 241.355 216.4L249.635 215.32C249.475 214.173 249.129 213.213 248.595 212.44C248.062 211.667 247.182 211.28 245.955 211.28ZM293.828 224C294.148 224.933 294.454 225.613 294.748 226.04C295.041 226.44 295.388 226.707 295.788 226.84C296.214 226.947 296.774 227.027 297.468 227.08V228H287.908V227.08C288.814 227.027 289.481 226.933 289.908 226.8C290.361 226.667 290.614 226.387 290.668 225.96C290.721 225.533 290.588 224.88 290.268 224L287.988 217.12C287.854 217.253 287.654 217.347 287.388 217.4C287.121 217.427 286.841 217.44 286.548 217.44H281.308C280.721 217.44 280.281 217.507 279.988 217.64C279.694 217.773 279.441 218.133 279.228 218.72L277.348 224C277.001 225.013 277.001 225.773 277.348 226.28C277.721 226.76 278.761 227.027 280.468 227.08V228H272.188V227.08C273.041 227.027 273.708 226.76 274.188 226.28C274.694 225.773 275.134 225.013 275.508 224L282.588 204.56C282.854 203.867 283.108 203.187 283.348 202.52C283.588 201.853 283.801 201.173 283.988 200.48H285.948C286.134 201.173 286.334 201.853 286.548 202.52C286.788 203.187 287.041 203.867 287.308 204.56L293.828 224ZM286.628 216C286.974 216 287.214 215.96 287.348 215.88C287.481 215.773 287.481 215.56 287.348 215.24L284.068 205.52H283.988L280.148 216.12C280.281 216.067 280.441 216.04 280.628 216.04C280.814 216.013 281.028 216 281.268 216H286.628ZM302.258 228V227.08C302.872 227.053 303.352 226.973 303.698 226.84C304.045 226.707 304.285 226.427 304.418 226C304.578 225.573 304.658 224.893 304.658 223.96V214.8C304.658 214.107 304.552 213.653 304.338 213.44C304.125 213.227 303.832 213.12 303.458 213.12C303.165 213.12 302.872 213.16 302.578 213.24C302.312 213.293 302.032 213.387 301.738 213.52L301.338 212.6L307.778 209.6L308.018 209.84C307.965 210.08 307.898 210.6 307.818 211.4C307.765 212.173 307.738 213.027 307.738 213.96H307.818C308.912 212.333 310.112 211.24 311.418 210.68C312.752 210.12 314.138 209.893 315.578 210C315.792 211.973 315.792 213.947 315.578 215.92H314.658C314.552 214.827 314.298 214.067 313.898 213.64C313.525 213.187 312.992 212.96 312.298 212.96C311.418 212.96 310.632 213.147 309.938 213.52C309.245 213.893 308.552 214.507 307.858 215.36V223.96C307.858 224.893 307.952 225.573 308.138 226C308.325 226.427 308.685 226.707 309.218 226.84C309.778 226.973 310.592 227.053 311.658 227.08V228H302.258ZM328.683 228.6C327.323 228.6 326.017 228.28 324.763 227.64C323.537 227 322.523 226.04 321.723 224.76C320.95 223.453 320.563 221.8 320.563 219.8C320.563 217.773 320.963 216.013 321.763 214.52C322.563 213.027 323.63 211.867 324.963 211.04C326.297 210.213 327.75 209.8 329.323 209.8C330.47 209.8 331.523 210.027 332.483 210.48C333.47 210.933 334.257 211.627 334.843 212.56C335.457 213.493 335.763 214.68 335.763 216.12L323.763 217.68C323.763 217.813 323.763 217.96 323.763 218.12C323.763 220.573 324.323 222.493 325.443 223.88C326.563 225.267 328.057 225.96 329.923 225.96C330.99 225.96 331.977 225.747 332.883 225.32C333.79 224.867 334.603 224.307 335.323 223.64L335.963 224.28C335.217 225.56 334.217 226.6 332.963 227.4C331.737 228.2 330.31 228.6 328.683 228.6ZM328.483 211.28C327.097 211.28 326.03 211.773 325.283 212.76C324.537 213.747 324.07 214.96 323.883 216.4L332.163 215.32C332.003 214.173 331.657 213.213 331.123 212.44C330.59 211.667 329.71 211.28 328.483 211.28Z" fill="#FFBB70"/>
<circle cx="47" cy="386" r="50" fill="#A5645A" fill-opacity="0.5"/>
<circle cx="281" cy="65" r="50" fill="#A5645A" fill-opacity="0.5"/>
<circle cx="65" cy="312" r="50" fill="#A5645A" fill-opacity="0.5"/>
<circle cx="365" cy="65" r="50" fill="#A5645A" fill-opacity="0.5"/>
<circle cx="125" cy="365" r="50" fill="#A5645A" fill-opacity="0.5"/>
<circle cx="353" cy="133" r="50" fill="#A5645A" fill-opacity="0.5"/>
<path d="M188 243C188 245.209 189.791 247 192 247C194.209 247 196 245.209 196 243C196 240.791 194.209 239 192 239C189.791 239 188 240.791 188 243ZM92 243.75H192V242.25H92V243.75Z" fill="#FFBB70"/>
</g>
<defs>
<filter id="filter0_dd_1906_2087" x="0" y="0" width="430" height="430" filterUnits="userSpaceOnUse" color-interpolation-filters="sRGB">
<feFlood flood-opacity="0" result="BackgroundImageFix"/>
<feColorMatrix in="SourceAlpha" type="matrix" values="0 0 0 0 0 0 0 0 0 0 0 0 0 0 0 0 0 0 127 0" result="hardAlpha"/>
<feOffset dx="5" dy="5"/>
<feGaussianBlur stdDeviation="5"/>
<feComposite in2="hardAlpha" operator="out"/>
<feColorMatrix type="matrix" values="0 0 0 0 0 0 0 0 0 0 0 0 0 0 0 0 0 0 0.1 0"/>
<feBlend mode="normal" in2="BackgroundImageFix" result="effect1_dropShadow_1906_2087"/>
<feColorMatrix in="SourceAlpha" type="matrix" values="0 0 0 0 0 0 0 0 0 0 0 0 0 0 0 0 0 0 127 0" result="hardAlpha"/>
<feOffset dx="-5" dy="-5"/>
<feGaussianBlur stdDeviation="5"/>
<feComposite in2="hardAlpha" operator="out"/>
<feColorMatrix type="matrix" values="0 0 0 0 0 0 0 0 0 0 0 0 0 0 0 0 0 0 0.1 0"/>
<feBlend mode="normal" in2="effect1_dropShadow_1906_2087" result="effect2_dropShadow_1906_2087"/>
<feBlend mode="normal" in="SourceGraphic" in2="effect2_dropShadow_1906_2087" result="shape"/>
</filter>
</defs>
</svg>
