<svg width="45" height="45" viewBox="0 0 45 45" fill="none" xmlns="http://www.w3.org/2000/svg">
<g clip-path="url(#clip0_1903_2074)">
<path d="M23.0007 15.6665C23.7844 15.6665 24.5883 15.6867 25.3675 15.7197L26.2878 15.7637L27.1687 15.8159L27.9937 15.8718L28.7472 15.9305C29.5649 15.9931 30.3344 16.342 30.9202 16.916C31.506 17.4899 31.8707 18.252 31.9501 19.0683L31.9867 19.4578L32.0555 20.292C32.1197 21.1564 32.1673 22.0988 32.1673 22.9998C32.1673 23.9009 32.1197 24.8433 32.0555 25.7077L31.9867 26.5418C31.9748 26.6757 31.9629 26.8049 31.9501 26.9314C31.8707 27.7478 31.5059 28.5101 30.9199 29.084C30.3339 29.6579 29.5642 30.0068 28.7463 30.0692L27.9947 30.1269L27.1697 30.1838L26.2878 30.236L25.3675 30.28C24.579 30.3143 23.7899 30.332 23.0007 30.3332C22.2114 30.332 21.4223 30.3143 20.6338 30.28L19.7135 30.236L18.8326 30.1838L18.0076 30.1269L17.2541 30.0692C16.4364 30.0066 15.6669 29.6576 15.0811 29.0837C14.4953 28.5098 14.1306 27.7477 14.0512 26.9314L14.0146 26.5418L13.9458 25.7077C13.8757 24.8067 13.8384 23.9035 13.834 22.9998C13.834 22.0988 13.8817 21.1564 13.9458 20.292L14.0146 19.4578C14.0265 19.324 14.0384 19.1948 14.0512 19.0683C14.1306 18.2521 14.4951 17.4901 15.0807 16.9162C15.6664 16.3423 16.4356 15.9933 17.2532 15.9305L18.0057 15.8718L18.8307 15.8159L19.7126 15.7637L20.6329 15.7197C21.4217 15.6854 22.2111 15.6677 23.0007 15.6665ZM23.0007 17.4998C22.2444 17.4998 21.4662 17.52 20.709 17.5512L19.8125 17.5943L18.9517 17.6447L18.1432 17.6997L17.4026 17.7574C17.0133 17.785 16.6464 17.9496 16.3668 18.2219C16.0873 18.4942 15.9132 18.8567 15.8754 19.2452C15.7682 20.3534 15.6673 21.733 15.6673 22.9998C15.6673 24.2667 15.7682 25.6463 15.8754 26.7545C15.9533 27.5538 16.5877 28.1753 17.4026 28.2423L18.1432 28.2991L18.9517 28.3541L19.8125 28.4054L20.709 28.4485C21.4662 28.4797 22.2444 28.4998 23.0007 28.4998C23.7569 28.4998 24.5352 28.4797 25.2923 28.4485L26.1888 28.4054L27.0496 28.355L27.8581 28.3L28.5987 28.2423C28.988 28.2146 29.3549 28.0501 29.6345 27.7778C29.914 27.5054 30.0881 27.1429 30.1259 26.7545C30.2332 25.6463 30.334 24.2667 30.334 22.9998C30.334 21.733 30.2332 20.3534 30.1259 19.2452C30.0881 18.8567 29.914 18.4942 29.6345 18.2219C29.3549 17.9496 28.988 17.785 28.5987 17.7574L27.8581 17.7006L27.0496 17.6456L26.1888 17.5943L25.2923 17.5512C24.5289 17.5183 23.7648 17.5012 23.0007 17.4998ZM21.1673 20.7769C21.1673 20.6873 21.1891 20.5991 21.2309 20.5198C21.2727 20.4406 21.3333 20.3728 21.4073 20.3223C21.4813 20.2718 21.5665 20.2401 21.6555 20.23C21.7445 20.22 21.8347 20.2318 21.9181 20.2645L21.9923 20.3012L25.8423 22.5232C25.919 22.5674 25.9838 22.6295 26.0314 22.7042C26.0789 22.7788 26.1077 22.8638 26.1154 22.952C26.123 23.0402 26.1093 23.1289 26.0753 23.2107C26.0413 23.2924 25.9881 23.3647 25.9202 23.4215L25.8423 23.4765L21.9923 25.6994C21.9147 25.7443 21.8273 25.7696 21.7378 25.7731C21.6482 25.7765 21.5591 25.758 21.4783 25.7191C21.3975 25.6802 21.3274 25.6222 21.2742 25.5501C21.221 25.478 21.1862 25.3939 21.1728 25.3053L21.1673 25.2228V20.7769Z" fill="#3D2521"/>
</g>
<circle cx="22.5" cy="22.5" r="21.5" stroke="#3D2521" stroke-width="2"/>
<defs>
<clipPath id="clip0_1903_2074">
<rect width="22" height="22" fill="white" transform="translate(12 12)"/>
</clipPath>
</defs>
</svg>
